{
  "accessors": [
    {
      "bufferView": 2,
      "componentType": 5126,
      "count": 10860,
      "max": [
        0.03982779383659363,
        0.8633197546005249,
        0.05569374933838844
      ],
      "min": [
        -0.03982779383659363,
        -0.36249956488609314,
        -0.16677752137184143
      ],
      "type": "VEC3"
    },
    {
      "bufferView": 2,
      "byteOffset": 130320,
      "componentType": 5126,
      "count": 10860,
      "max": [
        1.0,
        1.0,
        1.0
      ],
      "min": [
        -1.0,
        -1.0,
        -1.0
      ],
      "type": "VEC3"
    },
    {
      "bufferView": 3,
      "componentType": 5126,
      "count": 10860,
      "max": [
        0.9999997615814209,
        1.0,
        0.9999958872795105,
        1.0
      ],
      "min": [
        -1.0,
        -0.9999995231628418,
        -0.9999983310699463,
        -1.0
      ],
      "type": "VEC4"
    },
    {
      "bufferView": 1,
      "componentType": 5126,
      "count": 10860,
      "max": [
        0.9903771281242371,
        0.9908732175827026
      ],
      "min": [
        0.007671616971492767,
        0.01304316520690918
      ],
      "type": "VEC2"
    },
    {
      "bufferView": 1,
      "byteOffset": 86880,
      "componentType": 5126,
      "count": 10860,
      "max": [
        0.9903771281242371,
        0.9908732175827026
      ],
      "min": [
        0.007671616971492767,
        0.01304316520690918
      ],
      "type": "VEC2"
    },
    {
      "bufferView": 1,
      "byteOffset": 173760,
      "componentType": 5126,
      "count": 10860,
      "max": [
        0.9903771281242371,
        0.9908732175827026
      ],
      "min": [
        0.007671616971492767,
        0.01304316520690918
      ],
      "type": "VEC2"
    },
    {
      "bufferView": 1,
      "byteOffset": 260640,
      "componentType": 5126,
      "count": 10860,
      "max": [
        0.9903771281242371,
        0.9908732175827026
      ],
      "min": [
        0.007671616971492767,
        0.01304316520690918
      ],
      "type": "VEC2"
    },
    {
      "bufferView": 0,
      "componentType": 5125,
      "count": 52842,
      "type": "SCALAR"
    }
  ],
  "asset": {
    "extras": {
      "author": "Dari (https://sketchfab.com/dariiiii)",
      "license": "SKETCHFAB Standard (https://sketchfab.com/licenses)",
      "source": "https://sketchfab.com/3d-models/crimson-katana-28eeda0e118744f2bcd0e320a2330ce8",
      "title": "Crimson Katana"
    },
    "generator": "Sketchfab-16.72.0",
    "version": "2.0"
  },
  "bufferViews": [
    {
      "buffer": 0,
      "byteLength": 211368,
      "name": "floatBufferViews",
      "target": 34963
    },
    {
      "buffer": 0,
      "byteLength": 347520,
      "byteOffset": 211368,
      "byteStride": 8,
      "name": "floatBufferViews",
      "target": 34962
    },
    {
      "buffer": 0,
      "byteLength": 260640,
      "byteOffset": 558888,
      "byteStride": 12,
      "name": "floatBufferViews",
      "target": 34962
    },
    {
      "buffer": 0,
      "byteLength": 173760,
      "byteOffset": 819528,
      "byteStride": 16,
      "name": "floatBufferViews",
      "target": 34962
    }
  ],
  "buffers": [
    {
      "byteLength": 993288,
      "uri": "scene.bin"
    }
  ],
  "extensionsUsed": [
    "KHR_materials_specular"
  ],
  "images": [
    {
      "uri": "textures/KatanaMaterial_baseColor.png"
    },
    {
      "uri": "textures/KatanaMaterial_metallicRoughness.png"
    },
    {
      "uri": "textures/KatanaMaterial_normal.png"
    }
  ],
  "materials": [
    {
      "doubleSided": true,
      "extensions": {
        "KHR_materials_specular": {
          "specularColorFactor": [
            1.0,
            1.0,
            1.0
          ],
          "specularFactor": 0.11806040915015395
        }
      },
      "name": "KatanaMaterial",
      "normalTexture": {
        "index": 2
      },
      "pbrMetallicRoughness": {
        "baseColorTexture": {
          "index": 0
        },
        "metallicRoughnessTexture": {
          "index": 1
        },
        "roughnessFactor": 0.675
      }
    }
  ],
  "meshes": [
    {
      "name": "Object_0",
      "primitives": [
        {
          "attributes": {
            "NORMAL": 1,
            "POSITION": 0,
            "TANGENT": 2,
            "TEXCOORD_0": 3,
            "TEXCOORD_1": 4,
            "TEXCOORD_2": 5,
            "TEXCOORD_3": 6
          },
          "indices": 7,
          "material": 0,
          "mode": 4
        }
      ]
    }
  ],
  "nodes": [
    {
      "children": [
        1
      ],
      "matrix": [
        0.8888888955116272,
        0.0,
        0.0,
        0.0,
        0.0,
        0.6788860477589688,
        -0.5737919320365846,
        0.0,
        0.0,
        0.5737919320365846,
        0.6788860477589688,
        0.0,
        0.0,
        0.0,
        0.0,
        1.0
      ],
      "name": "Sketchfab_model"
    },
    {
      "children": [
        2
      ],
      "name": "root"
    },
    {
      "children": [
        3
      ],
      "matrix": [
        1.0,
        0.0,
        0.0,
        0.0,
        0.0,
        2.220446049250313e-16,
        1.0,
        0.0,
        0.0,
        -1.0,
        2.220446049250313e-16,
        0.0,
        0.0,
        0.0,
        0.0,
        1.0
      ],
      "name": "GLTF_SceneRootNode"
    },
    {
      "children": [
        4
      ],
      "name": "KatanaMesh_0"
    },
    {
      "mesh": 0,
      "name": "Object_4"
    }
  ],
  "samplers": [
    {
      "magFilter": 9729,
      "minFilter": 9987,
      "wrapS": 10497,
      "wrapT": 10497
    }
  ],
  "scene": 0,
  "scenes": [
    {
      "name": "Sketchfab_Scene",
      "nodes": [
        0
      ]
    }
  ],
  "textures": [
    {
      "sampler": 0,
      "source": 0
    },
    {
      "sampler": 0,
      "source": 1
    },
    {
      "sampler": 0,
      "source": 2
    }
  ]
}
